REM DIRINDEX 1\6,1\2\7,1\2\8,1\2\9,1\3\10,1\3\11,1\4\12,1\4\13,1\4\14,1\5\15,1\5\16,1\5\17
REM DIRNAME cjc041,folder01,folder02,folder03,folder04,folder05,folder06,folder07,folder08,folder09,folder10,folder11,folder12,folder13,folder14,folder15,folder16
TITLE ""
FILE "3Q_j_1045-1060.mp3" MP3
  TRACK 01 AUDIO
    TITLE "12:cjc041_0434"
    INDEX 01 00:00:00
  TRACK 02 AUDIO
    TITLE "0:"
    INDEX 01 00:01:19
  TRACK 03 AUDIO
    TITLE "13:cjc041_0435"
    INDEX 01 00:02:00
  TRACK 04 AUDIO
    TITLE "0:"
    INDEX 01 00:05:03
  TRACK 05 AUDIO
    TITLE "14:cjc041_0436"
    INDEX 01 00:05:57
  TRACK 06 AUDIO
    TITLE "0:"
    INDEX 01 00:09:63
  TRACK 07 AUDIO
    TITLE "12:cjc041_0437"
    INDEX 01 00:10:43
  TRACK 08 AUDIO
    TITLE "0:"
    INDEX 01 00:11:72
  TRACK 09 AUDIO
    TITLE "13:cjc041_0438"
    INDEX 01 00:12:46
  TRACK 10 AUDIO
    TITLE "0:"
    INDEX 01 00:13:61
  TRACK 11 AUDIO
    TITLE "14:cjc041_0439"
    INDEX 01 00:14:37
  TRACK 12 AUDIO
    TITLE "0:"
    INDEX 01 00:17:63
  TRACK 13 AUDIO
    TITLE "12:cjc041_0440"
    INDEX 01 00:18:41
  TRACK 14 AUDIO
    TITLE "0:"
    INDEX 01 00:20:30
  TRACK 15 AUDIO
    TITLE "13:cjc041_0441"
    INDEX 01 00:21:09
  TRACK 16 AUDIO
    TITLE "0:"
    INDEX 01 00:23:01
  TRACK 17 AUDIO
    TITLE "14:cjc041_0442"
    INDEX 01 00:23:51
  TRACK 18 AUDIO
    TITLE "0:"
    INDEX 01 00:26:67
  TRACK 19 AUDIO
    TITLE "12:cjc041_0443"
    INDEX 01 00:27:47
  TRACK 20 AUDIO
    TITLE "0:"
    INDEX 01 00:28:57
  TRACK 21 AUDIO
    TITLE "13:cjc041_0444"
    INDEX 01 00:29:36
  TRACK 22 AUDIO
    TITLE "0:"
    INDEX 01 00:32:15
  TRACK 23 AUDIO
    TITLE "14:cjc041_0445"
    INDEX 01 00:32:70
  TRACK 24 AUDIO
    TITLE "0:"
    INDEX 01 00:38:18
  TRACK 25 AUDIO
    TITLE "12:cjc041_0446"
    INDEX 01 00:39:00
  TRACK 26 AUDIO
    TITLE "0:"
    INDEX 01 00:40:21
  TRACK 27 AUDIO
    TITLE "13:cjc041_0447"
    INDEX 01 00:40:72
  TRACK 28 AUDIO
    TITLE "0:"
    INDEX 01 00:42:43
  TRACK 29 AUDIO
    TITLE "14:cjc041_0448"
    INDEX 01 00:43:23
  TRACK 30 AUDIO
    TITLE "0:"
    INDEX 01 00:46:33
  TRACK 31 AUDIO
    TITLE "12:cjc041_0449"
    INDEX 01 00:47:09
  TRACK 32 AUDIO
    TITLE "0:"
    INDEX 01 00:49:18
  TRACK 33 AUDIO
    TITLE "13:cjc041_0450"
    INDEX 01 00:49:69
  TRACK 34 AUDIO
    TITLE "0:"
    INDEX 01 00:51:28
  TRACK 35 AUDIO
    TITLE "14:cjc041_0451"
    INDEX 01 00:52:06
  TRACK 36 AUDIO
    TITLE "0:"
    INDEX 01 00:55:53
  TRACK 37 AUDIO
    TITLE "12:cjc041_0452"
    INDEX 01 00:56:29
  TRACK 38 AUDIO
    TITLE "0:"
    INDEX 01 00:57:60
  TRACK 39 AUDIO
    TITLE "13:cjc041_0453"
    INDEX 01 00:58:40
  TRACK 40 AUDIO
    TITLE "0:"
    INDEX 01 01:00:49
  TRACK 41 AUDIO
    TITLE "14:cjc041_0454"
    INDEX 01 01:01:23
  TRACK 42 AUDIO
    TITLE "0:"
    INDEX 01 01:04:64
  TRACK 43 AUDIO
    TITLE "12:cjc041_0455"
    INDEX 01 01:05:44
  TRACK 44 AUDIO
    TITLE "0:"
    INDEX 01 01:07:04
  TRACK 45 AUDIO
    TITLE "13:cjc041_0456"
    INDEX 01 01:07:53
  TRACK 46 AUDIO
    TITLE "0:"
    INDEX 01 01:10:06
  TRACK 47 AUDIO
    TITLE "14:cjc041_0457"
    INDEX 01 01:10:59
  TRACK 48 AUDIO
    TITLE "0:"
    INDEX 01 01:14:65
  TRACK 49 AUDIO
    TITLE "12:cjc041_0458"
    INDEX 01 01:15:46
  TRACK 50 AUDIO
    TITLE "0:"
    INDEX 01 01:17:12
  TRACK 51 AUDIO
    TITLE "13:cjc041_0459"
    INDEX 01 01:17:61
  TRACK 52 AUDIO
    TITLE "0:"
    INDEX 01 01:19:09
  TRACK 53 AUDIO
    TITLE "14:cjc041_0460"
    INDEX 01 01:19:60
  TRACK 54 AUDIO
    TITLE "0:"
    INDEX 01 01:23:46
  TRACK 55 AUDIO
    TITLE "12:cjc041_0461"
    INDEX 01 01:24:20
  TRACK 56 AUDIO
    TITLE "0:"
    INDEX 01 01:26:21
  TRACK 57 AUDIO
    TITLE "13:cjc041_0462"
    INDEX 01 01:26:72
  TRACK 58 AUDIO
    TITLE "0:"
    INDEX 01 01:29:25
  TRACK 59 AUDIO
    TITLE "14:cjc041_0463"
    INDEX 01 01:29:74
  TRACK 60 AUDIO
    TITLE "0:"
    INDEX 01 01:34:54
  TRACK 61 AUDIO
    TITLE "12:cjc041_0464"
    INDEX 01 01:35:31
  TRACK 62 AUDIO
    TITLE "0:"
    INDEX 01 01:37:24
  TRACK 63 AUDIO
    TITLE "13:cjc041_0465"
    INDEX 01 01:38:02
  TRACK 64 AUDIO
    TITLE "0:"
    INDEX 01 01:40:03
  TRACK 65 AUDIO
    TITLE "14:cjc041_0466"
    INDEX 01 01:40:54
  TRACK 66 AUDIO
    TITLE "0:"
    INDEX 01 01:44:72
  TRACK 67 AUDIO
    TITLE "12:cjc041_0467"
    INDEX 01 01:45:49
  TRACK 68 AUDIO
    TITLE "0:"
    INDEX 01 01:47:07
  TRACK 69 AUDIO
    TITLE "13:cjc041_0468"
    INDEX 01 01:47:56
  TRACK 70 AUDIO
    TITLE "0:"
    INDEX 01 01:49:43
  TRACK 71 AUDIO
    TITLE "14:cjc041_0469"
    INDEX 01 01:50:25
  TRACK 72 AUDIO
    TITLE "0:"
    INDEX 01 01:55:09
  TRACK 73 AUDIO
    TITLE "12:cjc041_0470"
    INDEX 01 01:55:60
  TRACK 74 AUDIO
    TITLE "0:"
    INDEX 01 01:58:21
  TRACK 75 AUDIO
    TITLE "13:cjc041_0471"
    INDEX 01 01:59:04
  TRACK 76 AUDIO
    TITLE "0:"
    INDEX 01 02:01:72
  TRACK 77 AUDIO
    TITLE "14:cjc041_0472"
    INDEX 01 02:02:52
  TRACK 78 AUDIO
    TITLE "0:"
    INDEX 01 02:06:03
  TRACK 79 AUDIO
    TITLE "12:cjc041_0473"
    INDEX 01 02:06:59
  TRACK 80 AUDIO
    TITLE "0:"
    INDEX 01 02:08:50
  TRACK 81 AUDIO
    TITLE "13:cjc041_0474"
    INDEX 01 02:09:32
  TRACK 82 AUDIO
    TITLE "0:"
    INDEX 01 02:12:07
  TRACK 83 AUDIO
    TITLE "14:cjc041_0475"
    INDEX 01 02:12:62
  TRACK 84 AUDIO
    TITLE "0:"
    INDEX 01 02:16:42
  TRACK 85 AUDIO
    TITLE "12:cjc041_0476"
    INDEX 01 02:17:20
  TRACK 86 AUDIO
    TITLE "0:"
    INDEX 01 02:18:43
  TRACK 87 AUDIO
    TITLE "13:cjc041_0477"
    INDEX 01 02:19:25
  TRACK 88 AUDIO
    TITLE "0:"
    INDEX 01 02:21:33
  TRACK 89 AUDIO
    TITLE "14:cjc041_0478"
    INDEX 01 02:22:09
  TRACK 90 AUDIO
    TITLE "0:"
    INDEX 01 02:25:06
  TRACK 91 AUDIO
    TITLE "12:cjc041_0479"
    INDEX 01 02:25:59
  TRACK 92 AUDIO
    TITLE "0:"
    INDEX 01 02:27:52
  TRACK 93 AUDIO
    TITLE "13:cjc041_0480"
    INDEX 01 02:28:30
  TRACK 94 AUDIO
    TITLE "0:"
    INDEX 01 02:30:48
  TRACK 95 AUDIO
    TITLE "14:cjc041_0481"
    INDEX 01 02:31:24
  TRACK 96 AUDIO
    TITLE "0:"
    INDEX 01 02:34:52
